<svg xmlns="http://www.w3.org/2000/svg" xmlns:xlink="http://www.w3.org/1999/xlink" width="500" zoomAndPan="magnify" viewBox="0 0 375 374.999991" height="500" preserveAspectRatio="xMidYMid meet" version="1.0"><path fill="rgb(0%, 0%, 0%)" d="M 323.582031 49.113281 C 323.582031 52.550781 323.210938 55.152344 322.65625 55.152344 C 322.191406 55.152344 321.726562 54.6875 321.726562 54.222656 C 321.726562 53.664062 319.867188 53.292969 317.542969 53.292969 C 315.222656 53.292969 313.363281 53.664062 313.363281 54.222656 C 313.363281 54.6875 312.527344 55.152344 311.503906 55.152344 C 310.484375 55.152344 309.648438 55.523438 309.648438 56.082031 C 309.648438 56.546875 308.996094 57.011719 308.253906 57.011719 C 307.140625 57.011719 306.859375 58.3125 306.859375 63.050781 C 306.859375 67.324219 307.230469 69.085938 308.066406 69.085938 C 308.71875 69.085938 309.832031 69.925781 310.578125 70.945312 C 311.597656 72.433594 312.992188 72.804688 316.707031 72.804688 C 319.679688 72.804688 321.816406 72.339844 322.097656 71.597656 C 322.5625 70.667969 322.746094 70.667969 323.210938 71.597656 C 323.492188 72.246094 324.792969 72.804688 326 72.804688 C 327.949219 72.804688 328.230469 72.433594 328.230469 69.085938 C 328.230469 67.042969 327.855469 65.371094 327.300781 65.371094 C 326.835938 65.371094 326.371094 63.050781 326.371094 60.261719 C 326.371094 57.476562 326.835938 55.152344 327.300781 55.152344 C 327.855469 55.152344 328.230469 52.550781 328.230469 49.113281 C 328.230469 43.261719 328.136719 43.074219 325.90625 43.074219 C 323.675781 43.074219 323.582031 43.261719 323.582031 49.113281 Z M 322.28125 58.3125 C 323.027344 59.054688 323.582031 61.191406 323.582031 63.050781 C 323.582031 67.601562 321.816406 69.085938 316.617188 69.085938 C 314.105469 69.085938 311.785156 68.53125 310.949219 67.785156 C 309.460938 66.207031 309.183594 61.65625 310.578125 61.65625 C 311.132812 61.65625 311.503906 60.632812 311.503906 59.332031 C 311.503906 57.195312 311.785156 57.011719 316.242188 57.011719 C 319.03125 57.011719 321.445312 57.566406 322.28125 58.3125 Z M 322.28125 58.3125 " fill-opacity="1" fill-rule="nonzero"/><path fill="rgb(0%, 0%, 0%)" d="M 175.863281 45.953125 C 175.863281 46.976562 173.539062 49.578125 172.609375 49.578125 C 171.496094 49.578125 169.359375 52.273438 169.359375 53.664062 C 169.359375 54.5 168.988281 55.152344 168.429688 55.152344 C 167.964844 55.152344 167.5 55.988281 167.5 57.011719 C 167.5 58.03125 166.851562 58.867188 166.105469 58.867188 C 165.085938 58.867188 164.714844 59.984375 164.714844 63.050781 C 164.714844 65.464844 165.179688 67.230469 165.734375 67.230469 C 166.292969 67.230469 167.964844 68.4375 169.359375 70.015625 C 171.589844 72.433594 172.609375 72.804688 176.699219 72.804688 C 179.300781 72.804688 181.4375 72.339844 181.4375 71.875 C 181.4375 71.316406 182.273438 70.945312 183.292969 70.945312 C 184.316406 70.945312 185.152344 70.480469 185.152344 70.015625 C 185.152344 69.460938 185.804688 69.085938 186.546875 69.085938 C 187.289062 69.085938 187.941406 68.25 187.941406 67.230469 C 187.941406 65.929688 187.289062 65.371094 185.804688 65.371094 C 184.6875 65.371094 183.109375 66.207031 182.367188 67.230469 C 180.691406 69.550781 172.796875 69.832031 170.660156 67.785156 C 169.171875 66.300781 168.894531 58.867188 170.289062 58.867188 C 170.84375 58.867188 171.214844 58.03125 171.214844 57.011719 C 171.214844 55.988281 171.773438 55.152344 172.425781 55.152344 C 173.074219 55.152344 174.191406 54.316406 174.933594 53.292969 C 175.675781 52.273438 176.792969 51.4375 177.441406 51.4375 C 178.089844 51.4375 178.648438 50.972656 178.648438 50.507812 C 178.648438 49.949219 180.136719 49.578125 181.902344 49.578125 C 183.667969 49.578125 185.152344 49.949219 185.152344 50.507812 C 185.152344 50.972656 185.804688 51.4375 186.546875 51.4375 C 187.476562 51.4375 187.941406 50.414062 187.941406 48.183594 L 187.941406 44.933594 L 181.902344 44.933594 C 178.183594 44.933594 175.863281 45.304688 175.863281 45.953125 Z M 175.863281 45.953125 " fill-opacity="1" fill-rule="nonzero"/><path fill="rgb(0%, 0%, 0%)" d="M 5.84375 50.507812 C 5.84375 50.972656 5.007812 51.4375 3.984375 51.4375 C 2.777344 51.4375 2.125 52.085938 2.125 53.292969 C 2.125 54.316406 1.476562 55.152344 0.734375 55.152344 C -0.476562 55.152344 -0.660156 68.714844 -0.660156 171.285156 C -0.660156 265.023438 -0.476562 287.414062 0.546875 287.414062 C 1.199219 287.414062 2.3125 288.25 3.054688 289.273438 C 4.355469 291.128906 5.472656 291.128906 57.683594 291.128906 L 110.921875 291.128906 L 113.148438 288.808594 L 115.472656 286.578125 L 115.472656 170.355469 C 115.472656 45.210938 115.75 51.4375 110.921875 51.4375 C 109.804688 51.4375 108.96875 50.972656 108.96875 50.507812 C 108.96875 49.855469 91.132812 49.578125 57.40625 49.578125 C 23.679688 49.578125 5.84375 49.855469 5.84375 50.507812 Z M 87.601562 82.558594 C 87.601562 83.394531 88.4375 83.953125 89.921875 83.953125 C 92.246094 83.953125 92.246094 83.953125 92.246094 92.777344 L 92.246094 101.605469 L 89.457031 102.160156 C 87.878906 102.535156 86.671875 103.089844 86.671875 103.554688 C 86.671875 104.019531 73.757812 104.390625 57.871094 104.390625 C 39.289062 104.390625 29.070312 104.019531 29.070312 103.460938 C 29.070312 102.90625 28.234375 102.535156 27.304688 102.535156 C 22.9375 102.535156 22.566406 101.789062 22.566406 93.242188 C 22.566406 85.8125 22.75 84.972656 24.425781 84.417969 C 25.445312 84.136719 26.28125 83.210938 26.28125 82.464844 C 26.28125 81.351562 30.925781 81.164062 56.941406 81.164062 C 83.605469 81.164062 87.601562 81.351562 87.601562 82.558594 Z M 90.757812 114.238281 C 92.804688 114.984375 92.894531 130.777344 90.945312 132.820312 C 88.902344 134.773438 25.910156 134.773438 23.867188 132.820312 C 22.101562 131.054688 22.007812 114.984375 23.773438 114.332031 C 25.445312 113.589844 88.996094 113.589844 90.757812 114.238281 Z M 64.375 191.164062 C 64.375 192 65.953125 192.652344 68.554688 193.023438 C 72.179688 193.582031 72.734375 193.953125 72.734375 195.996094 C 72.734375 197.390625 73.292969 198.226562 74.128906 198.226562 C 74.871094 198.226562 75.523438 199.0625 75.523438 200.082031 C 75.523438 201.105469 75.988281 201.941406 76.453125 201.941406 C 77.007812 201.941406 77.382812 203.800781 77.382812 206.121094 C 77.382812 208.445312 77.007812 210.304688 76.453125 210.304688 C 75.988281 210.304688 75.523438 210.953125 75.523438 211.695312 C 75.523438 212.441406 74.871094 213.089844 74.128906 213.089844 C 73.199219 213.089844 72.734375 214.019531 72.734375 215.785156 C 72.734375 218.105469 72.269531 218.570312 69.484375 219.035156 C 67.53125 219.40625 66.230469 220.242188 66.230469 220.988281 C 66.230469 222.101562 64.558594 222.382812 57.871094 222.382812 C 51.273438 222.382812 49.507812 222.101562 49.507812 221.082031 C 49.507812 220.335938 48.671875 219.40625 47.652344 219.128906 C 46.628906 218.851562 45.792969 218.105469 45.792969 217.644531 C 45.792969 217.179688 45.140625 216.808594 44.398438 216.808594 C 43.65625 216.808594 43.003906 215.96875 43.003906 214.949219 C 43.003906 213.925781 42.632812 213.089844 42.078125 213.089844 C 41.613281 213.089844 41.148438 212.441406 41.148438 211.695312 C 41.148438 210.953125 40.777344 210.304688 40.21875 210.304688 C 39.753906 210.304688 39.289062 208.445312 39.289062 206.121094 C 39.289062 203.800781 39.753906 201.941406 40.21875 201.941406 C 40.777344 201.941406 41.148438 201.105469 41.148438 200.082031 C 41.148438 199.0625 41.613281 198.226562 42.078125 198.226562 C 42.632812 198.226562 43.003906 197.203125 43.003906 195.996094 C 43.003906 194.046875 43.5625 193.671875 47.652344 193.117188 C 50.71875 192.652344 52.296875 192 52.296875 191.164062 C 52.296875 190.144531 53.78125 189.863281 58.335938 189.863281 C 62.886719 189.863281 64.375 190.144531 64.375 191.164062 Z M 62.515625 238.640625 C 62.515625 239.382812 63.351562 240.03125 64.375 240.03125 C 65.394531 240.03125 66.230469 240.683594 66.230469 241.425781 C 66.230469 242.167969 66.882812 242.820312 67.625 242.820312 C 68.554688 242.820312 69.019531 243.75 69.019531 245.605469 C 69.019531 247.464844 68.554688 248.394531 67.625 248.394531 C 66.882812 248.394531 66.230469 249.230469 66.230469 250.253906 C 66.230469 251.460938 65.582031 252.109375 64.375 252.109375 C 63.351562 252.109375 62.515625 252.480469 62.515625 253.039062 C 62.515625 253.503906 60.65625 253.96875 58.335938 253.96875 C 56.011719 253.96875 54.15625 253.503906 54.15625 253.039062 C 54.15625 252.480469 53.132812 252.109375 51.832031 252.109375 C 50.160156 252.109375 49.507812 251.644531 49.507812 250.253906 C 49.507812 249.230469 49.136719 248.394531 48.578125 248.394531 C 48.117188 248.394531 47.652344 247.742188 47.652344 247 C 47.652344 246.257812 48.117188 245.605469 48.578125 245.605469 C 49.136719 245.605469 49.507812 244.769531 49.507812 243.75 C 49.507812 242.726562 49.972656 241.890625 50.53125 241.890625 C 51.832031 241.890625 54.15625 239.570312 54.15625 238.269531 C 54.15625 237.710938 56.011719 237.246094 58.335938 237.246094 C 61.402344 237.246094 62.515625 237.617188 62.515625 238.640625 Z M 62.515625 238.640625 " fill-opacity="1" fill-rule="nonzero"/><path fill="rgb(0%, 0%, 0%)" d="M 192.585938 63.050781 L 192.585938 72.804688 L 194.90625 72.804688 C 197.136719 72.804688 197.230469 72.617188 197.230469 65.835938 C 197.230469 60.261719 197.507812 58.867188 198.625 58.867188 C 199.367188 58.867188 200.019531 58.402344 200.019531 57.9375 C 200.019531 57.382812 201.503906 57.011719 203.269531 57.011719 C 206.148438 57.011719 206.519531 57.289062 206.519531 59.332031 C 206.519531 60.632812 206.984375 61.65625 207.449219 61.65625 C 208.007812 61.65625 208.378906 59.796875 208.378906 57.476562 C 208.378906 53.292969 208.378906 53.292969 205.128906 53.292969 C 203.363281 53.292969 201.875 53.664062 201.875 54.222656 C 201.875 54.6875 200.203125 55.152344 198.160156 55.152344 C 196.117188 55.152344 194.441406 54.6875 194.441406 54.222656 C 194.441406 53.664062 194.070312 53.292969 193.515625 53.292969 C 192.957031 53.292969 192.585938 57.195312 192.585938 63.050781 Z M 192.585938 63.050781 " fill-opacity="1" fill-rule="nonzero"/><path fill="rgb(0%, 0%, 0%)" d="M 221.386719 54.222656 C 221.386719 54.6875 219.898438 55.152344 218.132812 55.152344 C 215.53125 55.152344 214.882812 55.523438 214.882812 57.011719 C 214.882812 58.03125 214.511719 58.867188 213.953125 58.867188 C 213.488281 58.867188 213.023438 61.191406 213.023438 63.976562 C 213.023438 66.765625 213.488281 69.085938 213.953125 69.085938 C 214.511719 69.085938 214.882812 69.925781 214.882812 70.945312 C 214.882812 72.617188 215.53125 72.804688 221.015625 72.804688 C 227.238281 72.804688 229.746094 71.597656 229.746094 68.714844 C 229.746094 67.878906 230.210938 67.230469 230.675781 67.230469 C 231.234375 67.230469 231.605469 65.371094 231.605469 63.050781 C 231.605469 60.726562 231.234375 58.867188 230.675781 58.867188 C 230.210938 58.867188 229.746094 58.21875 229.746094 57.382812 C 229.746094 56.636719 229.191406 55.335938 228.445312 54.59375 C 226.960938 53.109375 221.386719 52.828125 221.386719 54.222656 Z M 225.101562 57.9375 C 225.101562 58.402344 225.753906 58.867188 226.496094 58.867188 C 227.609375 58.867188 227.890625 60.074219 227.890625 63.976562 L 227.890625 69.085938 L 217.671875 69.085938 L 217.671875 63.976562 C 217.671875 59.519531 217.855469 58.867188 219.527344 58.867188 C 220.550781 58.867188 221.386719 58.402344 221.386719 57.9375 C 221.386719 57.382812 222.222656 57.011719 223.246094 57.011719 C 224.265625 57.011719 225.101562 57.382812 225.101562 57.9375 Z M 225.101562 57.9375 " fill-opacity="1" fill-rule="nonzero"/><path fill="rgb(0%, 0%, 0%)" d="M 236.25 68.625 L 236.25 83.953125 L 238.574219 83.953125 C 240.804688 83.953125 240.898438 83.671875 240.898438 78.378906 L 240.898438 72.804688 L 245.355469 72.804688 C 248.699219 72.804688 250.09375 72.339844 251.117188 70.945312 C 251.859375 69.925781 252.972656 69.085938 253.625 69.085938 C 254.460938 69.085938 254.832031 67.324219 254.832031 63.050781 C 254.832031 58.773438 254.460938 57.011719 253.625 57.011719 C 252.972656 57.011719 251.859375 56.175781 251.117188 55.152344 C 249.722656 53.199219 243.683594 52.457031 243.683594 54.222656 C 243.683594 54.6875 243.035156 55.152344 242.289062 55.152344 C 241.546875 55.152344 240.898438 54.6875 240.898438 54.222656 C 240.898438 53.664062 239.875 53.292969 238.574219 53.292969 L 236.25 53.292969 Z M 250.1875 63.050781 L 250.1875 69.085938 L 240.898438 69.085938 L 240.898438 63.976562 C 240.898438 60.074219 241.175781 58.867188 242.289062 58.867188 C 243.035156 58.867188 243.683594 58.402344 243.683594 57.9375 C 243.683594 57.382812 245.171875 57.011719 246.9375 57.011719 L 250.1875 57.011719 Z M 250.1875 63.050781 " fill-opacity="1" fill-rule="nonzero"/><path fill="rgb(0%, 0%, 0%)" d="M 260.40625 68.625 C 260.40625 83.300781 260.5 83.953125 262.265625 83.953125 C 263.9375 83.953125 264.125 83.300781 264.125 78.378906 L 264.125 72.804688 L 268.582031 72.804688 C 271.925781 72.804688 273.320312 72.339844 274.34375 70.945312 C 275.085938 69.925781 276.199219 69.085938 276.851562 69.085938 C 277.6875 69.085938 278.058594 67.324219 278.058594 63.050781 C 278.058594 58.773438 277.6875 57.011719 276.851562 57.011719 C 276.199219 57.011719 275.085938 56.175781 274.34375 55.152344 C 272.949219 53.292969 268.769531 52.550781 268.769531 54.222656 C 268.769531 54.6875 267.746094 55.152344 266.445312 55.152344 C 265.144531 55.152344 264.125 54.6875 264.125 54.222656 C 264.125 53.664062 263.289062 53.292969 262.265625 53.292969 C 260.5 53.292969 260.40625 53.945312 260.40625 68.625 Z M 273.414062 59.332031 C 273.414062 60.632812 273.878906 61.65625 274.34375 61.65625 C 274.902344 61.65625 275.273438 62.492188 275.273438 63.511719 C 275.273438 64.535156 274.902344 65.371094 274.34375 65.371094 C 273.878906 65.371094 273.414062 66.207031 273.414062 67.230469 C 273.414062 68.808594 272.761719 69.085938 268.769531 69.085938 L 264.125 69.085938 L 264.125 63.976562 C 264.125 60.074219 264.402344 58.867188 265.515625 58.867188 C 266.261719 58.867188 266.910156 58.402344 266.910156 57.9375 C 266.910156 57.382812 268.398438 57.011719 270.164062 57.011719 C 273.042969 57.011719 273.414062 57.289062 273.414062 59.332031 Z M 273.414062 59.332031 " fill-opacity="1" fill-rule="nonzero"/><path fill="rgb(0%, 0%, 0%)" d="M 288.742188 55.152344 C 288.464844 56.175781 287.722656 57.011719 287.257812 57.011719 C 285.121094 57.011719 283.632812 59.890625 283.632812 63.976562 C 283.632812 68.160156 285.121094 70.945312 287.257812 70.945312 C 287.816406 70.945312 288.277344 71.316406 288.277344 71.875 C 288.277344 72.433594 290.878906 72.804688 294.316406 72.804688 C 297.753906 72.804688 300.355469 72.433594 300.355469 71.875 C 300.355469 71.316406 301.007812 70.945312 301.75 70.945312 C 302.492188 70.945312 303.144531 70.109375 303.144531 69.085938 C 303.144531 68.066406 302.492188 67.230469 301.75 67.230469 C 301.007812 67.230469 300.355469 67.601562 300.355469 68.160156 C 300.355469 68.714844 297.664062 69.085938 294.226562 69.085938 C 289.023438 69.085938 288.1875 68.902344 288.652344 67.601562 C 288.929688 66.765625 289.207031 65.929688 289.207031 65.742188 C 289.207031 65.558594 290.230469 65.371094 291.53125 65.371094 C 292.832031 65.371094 293.851562 64.90625 293.851562 64.441406 C 293.851562 63.886719 294.691406 63.511719 295.804688 63.511719 C 298.40625 63.511719 300.355469 61.375 300.355469 58.402344 C 300.355469 54.875 298.3125 53.292969 293.480469 53.292969 C 290.136719 53.292969 289.207031 53.664062 288.742188 55.152344 Z M 295.710938 57.9375 C 295.710938 58.402344 295.339844 58.867188 294.78125 58.867188 C 294.316406 58.867188 293.851562 59.519531 293.851562 60.261719 C 293.851562 61.097656 293.015625 61.65625 291.625 61.65625 C 290.414062 61.65625 289.113281 62.210938 288.929688 62.769531 C 288.652344 63.421875 288.371094 63.050781 288.371094 61.933594 C 288.1875 58.21875 289.300781 57.011719 292.550781 57.011719 C 294.316406 57.011719 295.710938 57.382812 295.710938 57.9375 Z M 295.710938 57.9375 " fill-opacity="1" fill-rule="nonzero"/><path fill="rgb(0%, 0%, 0%)" d="M 130.335938 88.132812 C 130.335938 88.875 129.6875 89.527344 128.945312 89.527344 C 128.199219 89.527344 127.550781 90.363281 127.550781 91.386719 C 127.550781 92.40625 127.179688 93.242188 126.621094 93.242188 C 125.972656 93.242188 125.691406 113.683594 125.691406 152.703125 C 125.691406 191.722656 125.972656 212.160156 126.621094 212.160156 C 127.179688 212.160156 127.550781 213.183594 127.550781 214.484375 C 127.550781 216.34375 128.015625 216.808594 129.875 216.808594 C 131.175781 216.808594 132.195312 217.179688 132.195312 217.734375 C 132.195312 218.386719 150.125 218.664062 184.222656 218.664062 L 236.25 218.664062 L 236.25 221.359375 C 236.25 224.519531 234.949219 225.167969 229.191406 225.167969 C 226.21875 225.167969 225.101562 225.539062 225.101562 226.5625 C 225.101562 227.675781 223.894531 227.957031 219.992188 227.957031 C 217.207031 227.957031 214.882812 228.328125 214.882812 228.882812 C 214.882812 229.347656 214.046875 229.8125 213.023438 229.8125 C 212.003906 229.8125 211.167969 230.183594 211.167969 230.742188 C 211.167969 231.207031 210.144531 231.671875 208.84375 231.671875 C 207.355469 231.671875 206.519531 232.230469 206.519531 233.066406 C 206.519531 233.902344 205.683594 234.457031 204.570312 234.457031 C 203.546875 234.457031 202.0625 235.109375 201.320312 235.851562 C 200.480469 236.59375 198.625 237.246094 197.136719 237.246094 C 195.652344 237.246094 194.441406 237.710938 194.441406 238.269531 C 194.441406 239.660156 190.820312 242.820312 189.148438 242.820312 C 188.496094 242.820312 187.941406 243.46875 187.941406 244.214844 C 187.941406 244.957031 187.289062 245.605469 186.546875 245.605469 C 185.804688 245.605469 185.152344 246.257812 185.152344 247 C 185.152344 247.742188 184.78125 248.394531 184.222656 248.394531 C 183.757812 248.394531 183.292969 249.230469 183.292969 250.253906 C 183.292969 252.109375 183.945312 252.109375 251.582031 252.109375 C 309.183594 252.109375 319.867188 251.925781 319.867188 250.808594 C 319.867188 250.066406 318.472656 249.230469 316.617188 248.953125 C 314.664062 248.582031 313.363281 247.742188 313.363281 247 C 313.363281 246.257812 312.992188 245.605469 312.433594 245.605469 C 311.96875 245.605469 311.503906 245.050781 311.503906 244.304688 C 311.503906 243.5625 310.578125 242.632812 309.460938 242.261719 C 307.140625 241.519531 305.003906 239.660156 305.003906 238.359375 C 305.003906 237.246094 302.773438 236.316406 300.265625 236.316406 C 299.335938 236.316406 298.5 235.851562 298.5 235.386719 C 298.5 234.832031 297.476562 234.457031 296.175781 234.457031 C 294.691406 234.457031 293.851562 233.902344 293.851562 233.066406 C 293.851562 232.230469 293.015625 231.671875 291.53125 231.671875 C 290.230469 231.671875 289.207031 231.207031 289.207031 230.742188 C 289.207031 230.183594 288.371094 229.8125 287.351562 229.8125 C 286.328125 229.8125 285.492188 229.347656 285.492188 228.882812 C 285.492188 228.328125 283.820312 227.957031 281.777344 227.957031 C 279.082031 227.957031 278.058594 227.582031 278.058594 226.5625 C 278.058594 225.539062 276.851562 225.167969 273.226562 225.167969 C 265.703125 225.167969 264.125 224.425781 264.125 221.359375 L 264.125 218.664062 L 315.6875 218.664062 C 349.410156 218.664062 367.25 218.386719 367.25 217.734375 C 367.25 217.179688 368.273438 216.808594 369.574219 216.808594 C 371.429688 216.808594 371.894531 216.34375 371.894531 214.484375 C 371.894531 213.183594 372.359375 212.160156 372.824219 212.160156 C 373.472656 212.160156 373.753906 191.257812 373.753906 151.402344 C 373.753906 91.386719 373.753906 90.546875 371.894531 89.992188 C 370.871094 89.710938 370.035156 88.785156 370.035156 88.039062 C 370.035156 86.925781 353.59375 86.738281 250.1875 86.738281 C 144.273438 86.738281 130.335938 86.925781 130.335938 88.132812 Z M 358.886719 100.210938 C 358.886719 100.953125 359.351562 101.605469 359.816406 101.605469 C 360.46875 101.605469 360.746094 119.257812 360.746094 152.796875 C 360.746094 195.902344 360.558594 204.171875 359.445312 205.285156 C 358.238281 206.402344 342.628906 206.585938 251.210938 206.585938 C 180.507812 206.585938 144.273438 206.308594 144.273438 205.65625 C 144.273438 205.101562 143.625 204.730469 142.878906 204.730469 C 142.136719 204.730469 141.488281 204.078125 141.488281 203.335938 C 141.488281 202.59375 141.113281 201.941406 140.558594 201.941406 C 139.90625 201.941406 139.628906 184.753906 139.628906 152.238281 L 139.628906 102.535156 L 141.949219 101.976562 C 143.25 101.699219 144.273438 100.859375 144.273438 100.117188 C 144.273438 99.003906 160.53125 98.816406 251.582031 98.816406 C 346.34375 98.816406 358.886719 99.003906 358.886719 100.210938 Z M 358.886719 100.210938 " fill-opacity="1" fill-rule="nonzero"/><path fill="rgb(0%, 0%, 0%)" d="M 152.636719 106.714844 C 152.636719 108.015625 152.265625 109.035156 151.707031 109.035156 C 151.148438 109.035156 150.777344 121.113281 150.777344 143.410156 C 150.777344 177.136719 150.777344 177.785156 152.636719 177.785156 C 153.65625 177.785156 154.492188 177.414062 154.492188 176.949219 C 154.492188 176.484375 157.464844 175.835938 160.996094 175.464844 C 165.640625 175 167.5 174.441406 167.5 173.511719 C 167.5 172.769531 168.335938 172.210938 169.359375 172.210938 C 170.378906 172.210938 171.214844 171.746094 171.214844 171.285156 C 171.214844 170.726562 172.890625 170.355469 174.933594 170.355469 C 176.976562 170.355469 178.648438 169.890625 178.648438 169.425781 C 178.648438 168.867188 179.671875 168.496094 180.972656 168.496094 C 182.273438 168.496094 183.292969 168.03125 183.292969 167.566406 C 183.292969 167.007812 184.96875 166.636719 187.011719 166.636719 C 189.519531 166.636719 190.726562 166.265625 190.726562 165.335938 C 190.726562 164.035156 194.628906 162.921875 199.179688 162.921875 C 200.667969 162.921875 201.875 162.457031 201.875 161.992188 C 201.875 161.433594 202.898438 161.0625 204.199219 161.0625 C 205.59375 161.0625 206.519531 160.507812 206.519531 159.761719 C 206.519531 158.925781 208.285156 158.277344 212.09375 157.90625 C 215.160156 157.535156 217.671875 156.882812 217.671875 156.417969 C 217.671875 155.859375 219.34375 155.488281 221.386719 155.488281 C 224.453125 155.488281 225.101562 155.210938 225.101562 153.632812 C 225.101562 152.144531 225.9375 151.773438 230.675781 151.214844 C 233.742188 150.84375 236.25 150.195312 236.25 149.820312 C 236.25 149.359375 237.273438 148.984375 238.574219 148.984375 C 239.875 148.984375 240.898438 148.429688 240.898438 147.683594 C 240.898438 146.847656 242.660156 146.292969 246.191406 145.921875 C 249.164062 145.640625 251.671875 144.898438 251.859375 144.339844 C 252.046875 143.875 254.089844 143.410156 256.320312 143.410156 C 259.292969 143.410156 260.40625 143.039062 260.40625 142.019531 C 260.40625 141.273438 261.242188 140.625 262.265625 140.625 C 263.289062 140.625 264.125 140.160156 264.125 139.695312 C 264.125 139.136719 265.796875 138.765625 267.839844 138.765625 C 269.882812 138.765625 271.554688 138.300781 271.554688 137.835938 C 271.554688 137.28125 272.390625 136.910156 273.414062 136.910156 C 274.4375 136.910156 275.273438 136.257812 275.273438 135.515625 C 275.273438 134.492188 276.386719 134.121094 279.453125 134.121094 C 281.777344 134.121094 283.632812 133.75 283.632812 133.285156 C 283.632812 132.820312 285.957031 132.078125 288.742188 131.796875 C 292.179688 131.335938 293.851562 130.683594 293.851562 129.847656 C 293.851562 129.105469 294.78125 128.546875 296.175781 128.546875 C 297.476562 128.546875 298.5 128.175781 298.5 127.710938 C 298.5 127.339844 301.007812 126.6875 304.074219 126.316406 C 308.8125 125.761719 309.648438 125.386719 309.648438 123.902344 C 309.648438 122.414062 310.296875 122.042969 312.898438 122.042969 C 314.664062 122.042969 316.152344 121.578125 316.152344 121.113281 C 316.152344 120.558594 317.265625 120.183594 318.753906 120.183594 C 323.769531 120.183594 328.230469 118.976562 328.230469 117.769531 C 328.230469 116.933594 329.34375 116.46875 331.480469 116.46875 C 333.246094 116.46875 334.730469 116.097656 334.730469 115.632812 C 334.730469 115.167969 337.425781 114.425781 340.769531 114.148438 C 344.953125 113.683594 346.808594 113.03125 346.808594 112.195312 C 346.808594 111.453125 347.738281 110.894531 349.132812 110.894531 C 350.804688 110.894531 351.457031 110.429688 351.457031 109.035156 C 351.457031 108.015625 351.082031 107.179688 350.527344 107.179688 C 350.0625 107.179688 349.597656 106.527344 349.597656 105.785156 C 349.597656 104.578125 338.078125 104.390625 251.117188 104.390625 L 152.636719 104.390625 Z M 152.636719 106.714844 " fill-opacity="1" fill-rule="nonzero"/><path fill="rgb(0%, 0%, 0%)" d="M 197.230469 271.15625 C 197.230469 285 197.417969 287.414062 198.625 287.414062 C 199.367188 287.414062 200.019531 286.578125 200.019531 285.554688 C 200.019531 284.535156 200.480469 283.699219 200.945312 283.699219 C 201.503906 283.699219 201.875 278.773438 201.875 270.691406 C 201.875 262.609375 201.503906 257.683594 200.945312 257.683594 C 200.480469 257.683594 200.019531 257.035156 200.019531 256.292969 C 200.019531 255.546875 199.367188 254.898438 198.625 254.898438 C 197.417969 254.898438 197.230469 257.3125 197.230469 271.15625 Z M 197.230469 271.15625 " fill-opacity="1" fill-rule="nonzero"/><path fill="rgb(0%, 0%, 0%)" d="M 254.832031 269.296875 C 254.832031 281.46875 254.648438 283.699219 253.4375 283.699219 C 252.695312 283.699219 252.046875 284.070312 252.046875 284.628906 C 252.046875 285.09375 252.695312 285.554688 253.4375 285.554688 C 254.183594 285.554688 254.832031 285.929688 254.832031 286.484375 C 254.832031 286.949219 255.484375 287.414062 256.226562 287.414062 C 257.339844 287.414062 257.621094 286.019531 257.621094 280.445312 C 257.621094 274.871094 257.898438 273.480469 259.011719 273.480469 C 260.128906 273.480469 260.40625 271.992188 260.40625 265.582031 C 260.40625 259.171875 260.128906 257.683594 259.011719 257.683594 C 258.269531 257.683594 257.621094 257.035156 257.621094 256.292969 C 257.621094 255.546875 256.96875 254.898438 256.226562 254.898438 C 255.019531 254.898438 254.832031 257.128906 254.832031 269.296875 Z M 254.832031 269.296875 " fill-opacity="1" fill-rule="nonzero"/><path fill="rgb(0%, 0%, 0%)" d="M 160.996094 258.613281 C 160.996094 259.078125 159.695312 259.542969 158.117188 259.542969 C 155.609375 259.542969 152.636719 261.308594 152.636719 262.792969 C 152.636719 263.722656 150.035156 266.046875 149.011719 266.046875 C 148.453125 266.046875 147.988281 266.882812 147.988281 267.90625 C 147.988281 268.925781 147.617188 269.761719 147.0625 269.761719 C 146.503906 269.761719 146.132812 272.269531 146.132812 275.429688 C 146.132812 280.910156 147.339844 283.699219 149.753906 283.699219 C 150.3125 283.699219 150.777344 284.070312 150.777344 284.628906 C 150.777344 285.183594 153.378906 285.554688 156.816406 285.554688 C 160.253906 285.554688 162.855469 285.183594 162.855469 284.628906 C 162.855469 284.070312 163.878906 283.699219 165.179688 283.699219 C 166.851562 283.699219 167.5 283.234375 167.5 281.839844 C 167.5 280.445312 166.851562 279.980469 165.179688 279.980469 C 163.878906 279.980469 162.855469 280.355469 162.855469 280.910156 C 162.855469 281.375 161.832031 281.839844 160.53125 281.839844 C 159.230469 281.839844 158.210938 282.210938 158.210938 282.769531 C 158.210938 283.234375 157.375 283.699219 156.351562 283.699219 C 155.328125 283.699219 154.492188 283.234375 154.492188 282.769531 C 154.492188 282.210938 153.65625 281.839844 152.636719 281.839844 C 150.964844 281.839844 150.777344 281.191406 150.777344 276.730469 C 150.777344 273.941406 151.242188 271.621094 151.707031 271.621094 C 152.265625 271.621094 152.636719 270.96875 152.636719 270.132812 C 152.636719 268.277344 154.863281 266.046875 156.722656 266.046875 C 157.558594 266.046875 158.210938 265.582031 158.210938 265.117188 C 158.210938 264.558594 158.859375 264.1875 159.601562 264.1875 C 160.347656 264.1875 160.996094 263.539062 160.996094 262.792969 C 160.996094 262.050781 161.832031 261.402344 162.855469 261.402344 C 164.25 261.402344 164.714844 262.050781 164.714844 263.722656 C 164.714844 265.582031 165.179688 266.046875 167.035156 266.046875 C 169.171875 266.046875 169.359375 265.675781 169.359375 261.867188 L 169.359375 257.683594 L 165.179688 257.683594 C 162.855469 257.683594 160.996094 258.054688 160.996094 258.613281 Z M 160.996094 258.613281 " fill-opacity="1" fill-rule="nonzero"/><path fill="rgb(0%, 0%, 0%)" d="M 291.066406 264.652344 C 291.066406 267.625 290.878906 267.90625 288.277344 267.90625 C 286.792969 267.90625 285.492188 268.277344 285.492188 268.832031 C 285.492188 269.296875 286.792969 269.761719 288.277344 269.761719 L 291.066406 269.761719 L 291.066406 277.660156 C 291.066406 284.070312 291.34375 285.554688 292.460938 285.554688 C 293.203125 285.554688 293.851562 285.929688 293.851562 286.484375 C 293.851562 286.949219 294.316406 287.414062 294.78125 287.414062 C 295.339844 287.414062 295.710938 284.164062 295.710938 279.515625 C 295.710938 273.105469 295.992188 271.621094 297.105469 271.621094 C 297.847656 271.621094 298.5 271.15625 298.5 270.691406 C 298.5 270.132812 299.519531 269.761719 300.820312 269.761719 C 302.121094 269.761719 303.144531 269.296875 303.144531 268.832031 C 303.144531 268.277344 302.585938 267.90625 301.84375 267.90625 C 301.101562 267.90625 300.265625 267.347656 299.984375 266.695312 C 299.519531 265.769531 299.335938 265.769531 298.871094 266.695312 C 297.753906 269.203125 295.710938 267.90625 295.710938 264.652344 C 295.710938 261.773438 295.433594 261.402344 293.390625 261.402344 C 291.34375 261.402344 291.066406 261.773438 291.066406 264.652344 Z M 291.066406 264.652344 " fill-opacity="1" fill-rule="nonzero"/><path fill="rgb(0%, 0%, 0%)" d="M 214.882812 266.976562 C 214.882812 267.441406 214.046875 267.90625 213.023438 267.90625 C 211.816406 267.90625 211.167969 268.554688 211.167969 269.761719 C 211.167969 270.785156 210.515625 271.621094 209.773438 271.621094 C 209.03125 271.621094 208.378906 272.457031 208.378906 273.480469 C 208.378906 274.5 208.007812 275.335938 207.449219 275.335938 C 206.984375 275.335938 206.519531 276.824219 206.519531 278.589844 C 206.519531 280.355469 206.984375 281.839844 207.449219 281.839844 C 208.007812 281.839844 208.378906 282.675781 208.378906 283.699219 C 208.378906 285.09375 209.03125 285.554688 210.703125 285.554688 C 212.003906 285.554688 213.023438 285.929688 213.023438 286.484375 C 213.023438 286.949219 214.882812 287.414062 217.207031 287.414062 C 219.527344 287.414062 221.386719 286.949219 221.386719 286.484375 C 221.386719 285.929688 222.222656 285.554688 223.246094 285.554688 C 224.453125 285.554688 225.101562 284.90625 225.101562 283.699219 C 225.101562 282.675781 224.730469 281.839844 224.171875 281.839844 C 223.707031 281.839844 223.246094 282.210938 223.246094 282.769531 C 223.246094 284.253906 214.046875 283.882812 212.46875 282.398438 C 210.332031 280.167969 210.792969 274.6875 213.488281 272.085938 C 215.71875 269.761719 221.386719 268.832031 221.386719 270.691406 C 221.386719 271.15625 222.222656 271.621094 223.246094 271.621094 C 224.453125 271.621094 225.101562 270.96875 225.101562 269.761719 C 225.101562 268.183594 224.453125 267.90625 221.386719 267.90625 C 219.34375 267.90625 217.671875 267.441406 217.671875 266.976562 C 217.671875 266.417969 217.019531 266.046875 216.277344 266.046875 C 215.53125 266.046875 214.882812 266.417969 214.882812 266.976562 Z M 214.882812 266.976562 " fill-opacity="1" fill-rule="nonzero"/><path fill="rgb(0%, 0%, 0%)" d="M 230.957031 267.441406 C 229.191406 269.390625 229.375 282.492188 231.046875 284.253906 C 231.792969 285 232.8125 285.554688 233.371094 285.554688 C 233.929688 285.554688 234.394531 285.929688 234.394531 286.484375 C 234.394531 286.949219 235.878906 287.414062 237.644531 287.414062 C 239.410156 287.414062 240.898438 286.949219 240.898438 286.484375 C 240.898438 285.929688 241.546875 285.554688 242.289062 285.554688 C 243.035156 285.554688 243.683594 285.929688 243.683594 286.484375 C 243.683594 286.949219 244.707031 287.414062 246.007812 287.414062 L 248.328125 287.414062 L 248.328125 267.90625 L 246.007812 267.90625 C 243.683594 267.90625 243.683594 267.996094 243.683594 275.800781 L 243.683594 283.699219 L 234.394531 283.699219 L 234.394531 274.871094 C 234.394531 265.859375 233.648438 264.28125 230.957031 267.441406 Z M 230.957031 267.441406 " fill-opacity="1" fill-rule="nonzero"/><path fill="rgb(0%, 0%, 0%)" d="M 358.886719 266.976562 C 358.886719 267.441406 357.773438 267.90625 356.472656 267.90625 C 353.59375 267.90625 351.457031 269.855469 351.457031 272.550781 C 351.457031 275.429688 353.683594 277.195312 357.402344 277.195312 C 359.722656 277.195312 360.746094 277.566406 360.746094 278.589844 C 360.746094 279.332031 361.398438 279.980469 362.140625 279.980469 C 362.882812 279.980469 363.535156 280.816406 363.535156 281.839844 C 363.535156 283.511719 362.882812 283.699219 358.421875 283.699219 C 355.636719 283.699219 353.3125 283.234375 353.3125 282.769531 C 353.3125 282.210938 352.476562 281.839844 351.457031 281.839844 C 350.246094 281.839844 349.597656 282.492188 349.597656 283.699219 C 349.597656 284.90625 350.246094 285.554688 351.457031 285.554688 C 352.476562 285.554688 353.3125 285.929688 353.3125 286.484375 C 353.3125 286.949219 355.449219 287.414062 357.957031 287.414062 C 361.769531 287.414062 363.160156 286.949219 364.925781 285.09375 C 368.828125 281.28125 367.433594 275.335938 362.695312 275.335938 C 361.582031 275.335938 360.746094 274.871094 360.746094 274.40625 C 360.746094 273.851562 359.722656 273.480469 358.421875 273.480469 C 357.121094 273.480469 356.101562 273.015625 356.101562 272.550781 C 356.101562 271.992188 356.75 271.621094 357.496094 271.621094 C 358.238281 271.621094 358.886719 271.15625 358.886719 270.691406 C 358.886719 270.132812 360.375 269.761719 362.140625 269.761719 C 363.90625 269.761719 365.390625 270.132812 365.390625 270.691406 C 365.390625 271.15625 365.855469 271.621094 366.320312 271.621094 C 366.878906 271.621094 367.25 270.320312 367.25 268.832031 C 367.25 266.140625 367.0625 266.046875 363.070312 266.046875 C 360.746094 266.046875 358.886719 266.417969 358.886719 266.976562 Z M 358.886719 266.976562 " fill-opacity="1" fill-rule="nonzero"/><path fill="rgb(0%, 0%, 0%)" d="M 174.933594 269.761719 C 174.191406 270.785156 173.074219 271.621094 172.425781 271.621094 C 171.589844 271.621094 171.214844 273.386719 171.214844 277.660156 C 171.214844 281.933594 171.589844 283.699219 172.425781 283.699219 C 173.074219 283.699219 174.191406 284.535156 174.933594 285.554688 C 175.863281 286.855469 177.347656 287.414062 179.765625 287.414062 C 181.714844 287.414062 183.292969 286.949219 183.292969 286.484375 C 183.292969 285.929688 184.316406 285.554688 185.617188 285.554688 C 186.917969 285.554688 187.941406 285.929688 187.941406 286.484375 C 187.941406 287.878906 189.796875 287.601562 191.46875 285.835938 C 192.585938 284.71875 192.679688 284.164062 191.84375 283.882812 C 191.097656 283.699219 190.726562 281.097656 190.726562 275.707031 L 190.726562 267.90625 L 183.480469 267.90625 C 177.347656 267.90625 176.046875 268.183594 174.933594 269.761719 Z M 185.152344 276.730469 L 185.152344 283.699219 L 175.863281 283.699219 L 175.863281 278.589844 C 175.863281 274.6875 176.140625 273.480469 177.253906 273.480469 C 178 273.480469 178.648438 273.015625 178.648438 272.550781 C 178.648438 271.992188 179.300781 271.621094 180.042969 271.621094 C 180.785156 271.621094 181.4375 271.15625 181.4375 270.691406 C 181.4375 270.132812 182.273438 269.761719 183.292969 269.761719 C 184.96875 269.761719 185.152344 270.414062 185.152344 276.730469 Z M 185.152344 276.730469 " fill-opacity="1" fill-rule="nonzero"/><path fill="rgb(0%, 0%, 0%)" d="M 267.839844 269.761719 C 267.097656 270.785156 265.980469 271.621094 265.332031 271.621094 C 264.496094 271.621094 264.125 273.386719 264.125 277.660156 C 264.125 281.933594 264.496094 283.699219 265.332031 283.699219 C 265.980469 283.699219 267.097656 284.535156 267.839844 285.554688 C 269.234375 287.507812 275.273438 288.25 275.273438 286.484375 C 275.273438 285.929688 276.574219 285.554688 278.058594 285.554688 C 279.640625 285.554688 280.847656 285.929688 280.847656 286.484375 C 280.847656 286.949219 281.496094 287.414062 282.238281 287.414062 C 283.355469 287.414062 283.632812 286.207031 283.632812 282.304688 C 283.632812 278.402344 283.355469 277.195312 282.238281 277.195312 C 281.496094 277.195312 280.847656 276.730469 280.847656 276.265625 C 280.847656 275.707031 281.496094 275.335938 282.238281 275.335938 C 283.167969 275.335938 283.632812 274.40625 283.632812 272.550781 C 283.632812 270.691406 283.167969 269.761719 282.238281 269.761719 C 281.496094 269.761719 280.847656 269.296875 280.847656 268.832031 C 280.847656 268.277344 278.246094 267.90625 274.992188 267.90625 C 270.253906 267.90625 268.953125 268.277344 267.839844 269.761719 Z M 278.058594 275.800781 C 278.058594 280.539062 277.78125 281.839844 276.664062 281.839844 C 275.921875 281.839844 275.273438 282.210938 275.273438 282.769531 C 275.273438 283.234375 273.785156 283.699219 272.019531 283.699219 C 269.417969 283.699219 268.769531 283.328125 268.769531 281.839844 C 268.769531 280.816406 268.398438 279.980469 267.839844 279.980469 C 267.375 279.980469 266.910156 278.960938 266.910156 277.660156 C 266.910156 276.359375 267.375 275.335938 267.839844 275.335938 C 268.398438 275.335938 268.769531 274.5 268.769531 273.480469 C 268.769531 272.085938 269.417969 271.621094 271.089844 271.621094 C 272.390625 271.621094 273.414062 271.15625 273.414062 270.691406 C 273.414062 270.132812 274.4375 269.761719 275.738281 269.761719 C 277.964844 269.761719 278.058594 269.949219 278.058594 275.800781 Z M 278.058594 275.800781 " fill-opacity="1" fill-rule="nonzero"/><path fill="rgb(0%, 0%, 0%)" d="M 310.578125 269.761719 C 309.832031 270.785156 308.71875 271.621094 308.066406 271.621094 C 307.230469 271.621094 306.859375 273.386719 306.859375 277.660156 C 306.859375 281.933594 307.230469 283.699219 308.066406 283.699219 C 308.71875 283.699219 309.832031 284.535156 310.578125 285.554688 C 312.527344 288.34375 318.378906 288.066406 321.261719 285.09375 C 322.5625 283.882812 323.582031 282.210938 323.582031 281.375 C 323.582031 280.632812 324.234375 279.980469 324.976562 279.980469 C 325.90625 279.980469 326.371094 278.960938 326.371094 276.730469 C 326.371094 274.5 325.90625 273.480469 324.976562 273.480469 C 324.234375 273.480469 323.582031 272.828125 323.582031 271.992188 C 323.582031 269.390625 321.074219 267.90625 316.429688 267.90625 C 312.992188 267.90625 311.597656 268.367188 310.578125 269.761719 Z M 321.726562 276.359375 C 321.726562 282.117188 320.332031 283.699219 315.316406 283.699219 C 312.15625 283.699219 311.503906 283.417969 311.503906 281.839844 C 311.503906 280.816406 311.132812 279.980469 310.578125 279.980469 C 310.113281 279.980469 309.648438 278.960938 309.648438 277.660156 C 309.648438 276.359375 310.113281 275.335938 310.578125 275.335938 C 311.132812 275.335938 311.503906 274.5 311.503906 273.480469 C 311.503906 271.804688 312.15625 271.621094 316.617188 271.621094 L 321.726562 271.621094 Z M 321.726562 276.359375 " fill-opacity="1" fill-rule="nonzero"/><path fill="rgb(0%, 0%, 0%)" d="M 330.085938 277.660156 L 330.085938 287.414062 L 332.410156 287.414062 C 334.640625 287.414062 334.730469 287.230469 334.730469 280.816406 C 334.730469 274.128906 335.847656 271.621094 338.820312 271.621094 C 339.65625 271.621094 340.308594 271.15625 340.308594 270.691406 C 340.308594 270.132812 340.957031 269.761719 341.699219 269.761719 C 342.445312 269.761719 343.09375 270.414062 343.09375 271.25 C 343.09375 272.640625 345.230469 275.335938 346.253906 275.335938 C 346.53125 275.335938 346.808594 273.664062 346.808594 271.621094 L 346.808594 267.90625 L 341.792969 267.90625 C 338.632812 267.90625 336.496094 268.367188 336.21875 269.019531 C 335.753906 269.949219 335.570312 269.949219 335.105469 269.019531 C 334.824219 268.460938 333.523438 267.90625 332.316406 267.90625 C 330.085938 267.90625 330.085938 267.996094 330.085938 277.660156 Z M 330.085938 277.660156 " fill-opacity="1" fill-rule="nonzero"/></svg>